<?xml version="1.0" encoding="iso-8859-1"?>
<!-- Uploaded to: SVG Repo, www.svgrepo.com, Generator: SVG Repo Mixer Tools -->
<!DOCTYPE svg PUBLIC "-//W3C//DTD SVG 1.1//EN" "http://www.w3.org/Graphics/SVG/1.1/DTD/svg11.dtd">
<svg fill="#00000030" height="800px" width="800px" version="1.1" id="Capa_1" xmlns="http://www.w3.org/2000/svg" xmlns:xlink="http://www.w3.org/1999/xlink" 
	 viewBox="0 0 491.486 491.486" xml:space="preserve">
<path d="M490.226,198.505L422.343,96.681c-0.274-0.411-0.588-0.794-0.937-1.143l-45.254-45.254c-2.929-2.929-7.678-2.929-10.606,0
	l-1.057,1.057l-40.051-30.038c-2.985-2.238-7.164-1.943-9.803,0.697l-11.314,11.313c-1.407,1.406-2.197,3.314-2.197,5.303
	s0.79,3.897,2.197,5.303l34.294,34.295l-22.981,22.981l-6.01,6.01l-34.294-34.294c-2.928-2.929-7.677-2.929-10.606,0l-11.314,11.313
	c-2.639,2.639-2.936,6.817-0.697,9.803l20.341,27.122l-36.968,36.968l-6.364-6.364l6.011-6.011c2.929-2.929,2.929-7.678,0-10.606
	c-2.929-2.929-7.678-2.929-10.606,0l-22.627,22.627c-2.929,2.929-2.929,7.678,0,10.606c1.464,1.464,3.384,2.197,5.303,2.197
	s3.839-0.732,5.303-2.197l6.01-6.01l6.364,6.364l-34.294,34.294c-6.043,6.043-6.043,15.877,0,21.92l0.354,0.354l-28.633,28.633
	c-0.002,0.002-0.003,0.003-0.005,0.005s-0.003,0.003-0.005,0.005l-50.902,50.902c-0.002,0.002-0.003,0.003-0.005,0.005
	s-0.003,0.003-0.005,0.005l-16.961,16.961c-0.002,0.002-0.003,0.003-0.005,0.005s-0.003,0.003-0.005,0.005l-50.902,50.902
	c-0.002,0.002-0.003,0.003-0.005,0.005s-0.003,0.003-0.005,0.005L4.541,411.288C1.612,414.216,0,418.108,0,422.249
	c0,4.14,1.612,8.033,4.54,10.96l33.941,33.941c3.021,3.022,6.991,4.533,10.96,4.533s7.938-1.511,10.96-4.533l185.996-185.996
	l0.354,0.354c3.021,3.022,6.991,4.533,10.96,4.533s7.938-1.511,10.96-4.533l77.111-77.111l83.131,55.421
	c2.975,1.984,6.936,1.592,9.463-0.937l16.97-16.971c2.929-2.929,2.929-7.678,0-10.606l-79.55-79.55l6.364-6.364l79.55,79.55
	c1.464,1.464,3.384,2.197,5.303,2.197s3.839-0.732,5.303-2.197l16.971-16.971C491.817,205.44,492.209,201.479,490.226,198.505z
	 M49.794,456.543c-0.036,0.036-0.146,0.146-0.354,0.146s-0.317-0.11-0.354-0.146l-33.941-33.941
	C15.11,422.566,15,422.456,15,422.249c0-0.207,0.11-0.317,0.146-0.354l16.291-16.29l6.01,6.011c1.464,1.465,3.384,2.197,5.303,2.197
	c1.919,0,3.839-0.732,5.303-2.197c2.929-2.929,2.929-7.677,0-10.606l-6.01-6.011l6.364-6.364l6.01,6.01
	c1.464,1.464,3.384,2.197,5.303,2.197s3.839-0.732,5.303-2.197c2.929-2.929,2.929-7.678,0-10.606l-6.01-6.01l6.364-6.364l6.011,6.01
	c1.464,1.465,3.384,2.197,5.303,2.197s3.839-0.732,5.303-2.197c2.929-2.929,2.929-7.678,0-10.606l-6.011-6.01l6.364-6.364l6.01,6.01
	c1.464,1.464,3.384,2.197,5.303,2.197s3.839-0.732,5.303-2.197c2.929-2.929,2.929-7.678,0-10.606l-6.01-6.01l6.364-6.364l6.01,6.01
	c1.464,1.464,3.384,2.197,5.303,2.197s3.839-0.732,5.303-2.197c2.929-2.929,2.929-7.678,0-10.606l-6.01-6.01l6.364-6.364l6.01,6.01
	c1.464,1.464,3.384,2.197,5.303,2.197s3.839-0.732,5.303-2.197c2.929-2.929,2.929-7.678,0-10.606l-6.01-6.01l6.364-6.364l6.01,6.01
	c1.464,1.464,3.384,2.197,5.303,2.197s3.839-0.732,5.303-2.197c2.929-2.929,2.929-7.678,0-10.606l-6.01-6.01l6.364-6.364l6.01,6.011
	c1.464,1.465,3.384,2.197,5.303,2.197c1.919,0,3.839-0.732,5.303-2.197c2.929-2.929,2.929-7.677,0-10.606l-6.01-6.011l6.364-6.364
	l6.01,6.01c1.464,1.464,3.384,2.197,5.303,2.197s3.839-0.732,5.303-2.197c2.929-2.929,2.929-7.678,0-10.606l-6.01-6.01l6.364-6.364
	l6.011,6.01c1.464,1.465,3.384,2.197,5.303,2.197s3.839-0.732,5.303-2.197c2.929-2.929,2.929-7.678,0-10.606l-6.011-6.01
	l6.364-6.364l0.354,0.354c6.043,6.044,15.877,6.044,21.92,0l73.893-73.893l12.021,12.021l-73.893,73.893
	c-6.043,6.043-6.043,15.876,0,21.92l0.354,0.354L49.794,456.543z M432.118,243.926l-83.131-55.421
	c-2.974-1.983-6.936-1.591-9.463,0.937l-81.459,81.459c-0.036,0.036-0.146,0.146-0.354,0.146s-0.317-0.11-0.354-0.146l-5.64-5.64
	c-0.006-0.006-0.01-0.012-0.016-0.018s-0.012-0.01-0.018-0.016l-5.639-5.639c-0.195-0.195-0.195-0.513,0-0.708l79.196-79.196
	c1.407-1.406,2.197-3.314,2.197-5.303s-0.79-3.897-2.197-5.303l-22.627-22.627c-1.464-1.465-3.384-2.197-5.303-2.197
	s-3.839,0.732-5.303,2.197l-79.196,79.196c-0.195,0.194-0.512,0.194-0.707,0l-5.637-5.637c-0.007-0.006-0.012-0.014-0.018-0.02
	s-0.014-0.012-0.02-0.018l-5.637-5.637c-0.195-0.195-0.195-0.512,0-0.708l86.469-86.469c2.639-2.639,2.936-6.817,0.697-9.803
	l-20.341-27.121l1.411-1.411l34.294,34.294c2.928,2.929,7.677,2.929,10.606,0l6.011-6.01l119.501,119.501L432.118,243.926z
	 M467.015,209.029l-79.55-79.55c-2.929-2.929-7.678-2.929-10.606,0l-11.667,11.667l-34.648-34.648l22.981-22.981
	c1.407-1.406,2.197-3.314,2.197-5.303s-0.79-3.897-2.197-5.303l-34.294-34.295l1.411-1.411l40.051,30.038
	c2.985,2.239,7.164,1.943,9.803-0.697l0.354-0.354l39.426,39.427l64.06,96.089L467.015,209.029z"/>
</svg>