<?xml version="1.0" encoding="iso-8859-1"?>
<!-- Uploaded to: SVG Repo, www.svgrepo.com, Generator: SVG Repo Mixer Tools -->
<svg fill="#000000" height="800px" width="800px" version="1.1" id="Layer_1" xmlns="http://www.w3.org/2000/svg" xmlns:xlink="http://www.w3.org/1999/xlink" 
	 viewBox="0 0 512 512" xml:space="preserve">
<g>
	<g>
		<path d="M503.467,191.997H153.6v-59.733c0-3.558-2.202-6.741-5.53-7.987c-3.328-1.237-7.083-0.307-9.421,2.364L89.6,182.696
			l-49.05-56.047c-2.33-2.679-6.11-3.61-9.421-2.372c-3.328,1.254-5.53,4.437-5.53,7.987v59.733H8.533
			c-4.71,0-8.533,3.823-8.533,8.533v93.867c0,1.323,0.307,2.637,0.896,3.814l42.667,85.333c1.476,2.944,4.454,4.719,7.637,4.719
			c0.648,0,1.306-0.077,1.963-0.23c3.849-0.905,6.571-4.343,6.571-8.303V268.797H102.4V379.73c0,3.959,2.722,7.398,6.571,8.303
			c0.657,0.154,1.314,0.23,1.963,0.23c3.183,0,6.161-1.775,7.637-4.719l40.311-80.614h62.985c4.71,0,8.533-3.823,8.533-8.533v-25.6
			h273.067c4.71,0,8.533-3.823,8.533-8.533V200.53C512,195.82,508.177,191.997,503.467,191.997z M136.533,154.979v37.018h-32.393
			L136.533,154.979z M42.667,154.979l32.393,37.018H42.667V154.979z M213.333,285.864H153.6c-3.234,0-6.187,1.826-7.637,4.719
			l-26.496,53.009v-74.786h93.867V285.864z M494.933,251.73H51.2c-4.71,0-8.533,3.823-8.533,8.533v83.319l-25.6-51.2v-83.32h17.067
			v8.533c0,4.71,3.823,8.533,8.533,8.533c4.71,0,8.533-3.823,8.533-8.533v-8.533h25.6v17.067c0,4.71,3.823,8.533,8.533,8.533
			c4.71,0,8.533-3.823,8.533-8.533v-17.067h25.6v8.533c0,4.71,3.823,8.533,8.533,8.533s8.533-3.823,8.533-8.533v-8.533h25.6v17.067
			c0,4.71,3.823,8.533,8.533,8.533s8.533-3.823,8.533-8.533v-17.067h25.6v8.533c0,4.71,3.823,8.533,8.533,8.533
			c4.71,0,8.533-3.823,8.533-8.533v-8.533h25.6v17.067c0,4.71,3.823,8.533,8.533,8.533s8.533-3.823,8.533-8.533v-17.067h25.6v8.533
			c0,4.71,3.823,8.533,8.533,8.533s8.533-3.823,8.533-8.533v-8.533h25.6v17.067c0,4.71,3.823,8.533,8.533,8.533
			s8.533-3.823,8.533-8.533v-17.067h25.6v8.533c0,4.71,3.823,8.533,8.533,8.533s8.533-3.823,8.533-8.533v-8.533h25.6v17.067
			c0,4.71,3.823,8.533,8.533,8.533s8.533-3.823,8.533-8.533v-17.067h25.6v8.533c0,4.71,3.823,8.533,8.533,8.533
			s8.533-3.823,8.533-8.533v-8.533h17.067V251.73z"/>
	</g>
</g>
</svg>