<?xml version="1.0" encoding="iso-8859-1"?>
<!-- Uploaded to: SVG Repo, www.svgrepo.com, Generator: SVG Repo Mixer Tools -->
<svg fill="#000000" version="1.1" id="Layer_1" xmlns="http://www.w3.org/2000/svg" xmlns:xlink="http://www.w3.org/1999/xlink" 
	 viewBox="0 0 512 512" xml:space="preserve">
<g>
	<g>
		<polygon points="21.05,291.051 9.835,302.044 23.033,315.508 23.033,340.581 9.708,354.038 20.867,365.089 38.737,347.04 
			38.737,309.095 		"/>
	</g>
</g>
<g>
	<g>
		<rect y="319.699" width="15.704" height="15.704"/>
	</g>
</g>
<g>
	<g>
		<path d="M488.369,304.425h-94.522v47.262h94.522c13.03,0,23.631-10.6,23.631-23.631C512,315.025,501.4,304.425,488.369,304.425z
			 M464.849,335.933h-55.25v-15.755h55.25V335.933z M488.369,335.933h-7.815v-15.755h7.815c4.343,0,7.877,3.534,7.877,7.876
			C496.246,332.399,492.712,335.933,488.369,335.933z"/>
	</g>
</g>
<g>
	<g>
		<rect x="78.522" y="319.699" width="15.704" height="15.704"/>
	</g>
</g>
<g>
	<g>
		<rect x="102.602" y="319.699" width="14.657" height="15.704"/>
	</g>
</g>
<g>
	<g>
		<rect x="126.682" y="319.699" width="15.704" height="15.704"/>
	</g>
</g>
<g>
	<g>
		<rect x="149.715" y="319.699" width="15.704" height="15.704"/>
	</g>
</g>
<g>
	<g>
		<rect x="172.748" y="319.699" width="15.704" height="15.704"/>
	</g>
</g>
<g>
	<g>
		<rect x="196.828" y="319.699" width="15.704" height="15.704"/>
	</g>
</g>
<g>
	<g>
		<rect x="220.908" y="319.699" width="15.704" height="15.704"/>
	</g>
</g>
<g>
	<g>
		<rect x="243.941" y="319.699" width="15.704" height="15.704"/>
	</g>
</g>
<g>
	<g>
		<rect x="266.974" y="319.699" width="16.751" height="15.704"/>
	</g>
</g>
<g>
	<g>
		<rect x="292.101" y="319.699" width="15.704" height="15.704"/>
	</g>
</g>
<g>
	<g>
		<rect x="315.134" y="319.699" width="15.704" height="15.704"/>
	</g>
</g>
<g>
	<g>
		<path d="M370.623,296.661v24.08h-8.309V179.159c0-17.781-14.466-32.247-32.247-32.247H79.533
			c-17.78,0-32.247,14.466-32.247,32.247v156.749h23.607v-15.704H62.99V179.159c0-9.122,7.421-16.543,16.543-16.543h250.534
			c9.122,0,16.543,7.421,16.543,16.543v141.582h-8.443v15.704h32.456v23.033h15.704v-62.818H370.623z"/>
	</g>
</g>
</svg>