<?xml version="1.0" ?><!-- Uploaded to: SVG Repo, www.svgrepo.com, Generator: SVG Repo Mixer Tools -->
<svg width="800px" height="800px" viewBox="0 0 100 100" data-name="Layer 1" id="Layer_1" xmlns="http://www.w3.org/2000/svg"><defs><style>.cls-1{fill:#1d1d1b;}</style></defs><path class="cls-1" d="M64.81,54.45l-.11-.2c-.81-1.35-3.25-5.46-1.69-9.63a9.29,9.29,0,0,1,2.17-3.28h0a.49.49,0,0,0,.15-.35V37.75a.5.5,0,0,0-.42-.49,5.58,5.58,0,0,1-2.66-1.21,4,4,0,0,1-1.39-2.86.51.51,0,0,0-.5-.49h-1.3L56.3,28a4.78,4.78,0,0,0,.25-1.51A4.87,4.87,0,0,0,56,24.22h1.72a.51.51,0,0,0,.49-.42,24.26,24.26,0,0,0-1.6-13.38,27.41,27.41,0,0,0-6.52-9.28.49.49,0,0,0-.54-.1.88.88,0,0,0-.15.12l0,0a27.28,27.28,0,0,0-6.52,9.28,24.27,24.27,0,0,0-1.6,13.38l.07.42,2.9,0a4.92,4.92,0,0,0-.6,2.33,5.13,5.13,0,0,0,.2,1.35L40.93,32.7H39.64a.51.51,0,0,0-.5.49,4,4,0,0,1-1.39,2.86,5.58,5.58,0,0,1-2.66,1.21.5.5,0,0,0-.42.49V41a.49.49,0,0,0,.15.35h0A9.29,9.29,0,0,1,37,44.62c1.56,4.16-.88,8.27-1.68,9.63l-.12.2c-3.29,5.67-2.25,20.12,3.18,44.17l.09.39h6.31a.5.5,0,0,0,.5-.59c-.89-5.3-1.6-10.71-2.12-16.11-1-10.24-1.48-15.38-.67-20.17a42.9,42.9,0,0,1,2.08-7.74,54.56,54.56,0,0,0,2.72-10.59,73.27,73.27,0,0,0,.88-10.11h3.68a73.13,73.13,0,0,0,.88,10.11A54.56,54.56,0,0,0,55.44,54.4a42.9,42.9,0,0,1,2.08,7.74c.81,4.79.31,9.93-.67,20.18-.52,5.39-1.23,10.8-2.12,16.1a.5.5,0,0,0,.5.59h6.31l.09-.39C67.06,74.57,68.1,60.12,64.81,54.45ZM44.6,26.51c0-2.53,2.46-4.58,5.47-4.58s5.48,2.05,5.48,4.58-2.46,4.57-5.48,4.57S44.6,29,44.6,26.51ZM50.21,2.68a25.9,25.9,0,0,1,5.45,8.12,23.33,23.33,0,0,1,1.62,12.26A9.43,9.43,0,0,0,54,18.56a11.46,11.46,0,0,0-3.82-1.88ZM42.15,23.2a23.21,23.21,0,0,1,1.6-12.4,26,26,0,0,1,5.46-8.12l0,14.38a.51.51,0,0,0,.38.49,10.48,10.48,0,0,1,3.84,1.81,8.34,8.34,0,0,1,2.86,3.86h-1a7.09,7.09,0,0,0-10.4-.06ZM36.05,55l.12-.19c2.31-3.9,2.9-7.43,1.76-10.49a9.68,9.68,0,0,0-1.33-2.38,6.3,6.3,0,0,1,2.67,1.62c2.88,3.1.33,8.75-.51,10.61l-.12.27C35.21,62.13,35.94,76.81,40.8,98H39.26C34,74.77,33,60.29,36.05,55ZM46.29,43.66a54.8,54.8,0,0,1-2.67,10.42A42.78,42.78,0,0,0,41.49,62c-.82,4.92-.33,10.11.66,20.45.5,5.21,1.19,10.45,2,15.59H41.82C37,76.9,36.2,62.36,39.55,54.8l.12-.27c.91-2,3.67-8.11.33-11.7a8.14,8.14,0,0,0-4.33-2.25V38.16a6.33,6.33,0,0,0,2.74-1.36,5,5,0,0,0,1.69-3.1h7.07A72.67,72.67,0,0,1,46.29,43.66Zm6-11H42.1L44.29,29a7,7,0,0,0,11.5.12L57.9,32.7ZM58.18,98H55.82c.84-5.14,1.53-10.38,2-15.6,1-10.33,1.48-15.52.66-20.44a42.78,42.78,0,0,0-2.13-7.89,54.8,54.8,0,0,1-2.67-10.42,72.67,72.67,0,0,1-.88-10H59.9a5,5,0,0,0,1.69,3.1,6.33,6.33,0,0,0,2.74,1.36v2.42A8.14,8.14,0,0,0,60,42.83c-3.34,3.59-.58,9.69.33,11.7l.12.27C63.8,62.36,63,76.9,58.18,98Zm2.56,0H59.2c4.86-21.2,5.59-35.88,2.16-43.62l-.12-.27c-.84-1.86-3.39-7.51-.51-10.61a6.3,6.3,0,0,1,2.67-1.62,9.68,9.68,0,0,0-1.33,2.38c-1.14,3.06-.55,6.59,1.76,10.49L64,55C67,60.29,66,74.77,60.74,98Z"/><path class="cls-1" d="M50.07,29.81a3.58,3.58,0,0,0,3.8-3.3,3.83,3.83,0,0,0-7.59,0A3.57,3.57,0,0,0,50.07,29.81Zm0-5.6a2.59,2.59,0,0,1,2.8,2.3,2.85,2.85,0,0,1-5.59,0A2.58,2.58,0,0,1,50.07,24.21Z"/></svg>