<?xml version="1.0" ?><!-- Uploaded to: SVG Repo, www.svgrepo.com, Generator: SVG Repo Mixer Tools -->
<svg width="800px" height="800px" viewBox="0 0 100 100" data-name="Layer 1" id="Layer_1" xmlns="http://www.w3.org/2000/svg"><defs><style>.cls-1{fill:#1d1d1b;}</style></defs><path class="cls-1" d="M24.63,1.62V98.38H40.55v-82H75.37V1.62Zm1,95.76V95.2h3.54v-1H25.63V92.91h1.52v-1H25.63v-1.3h3.54v-1H25.63V88.32h1.52v-1H25.63V86h3.54V85H25.63V83.73h1.52v-1H25.63V81.44h3.54v-1H25.63v-1.3h1.52v-1H25.63V76.85h3.54v-1H25.63v-1.3h1.52v-1H25.63V72.26h3.54v-1H25.63V70h1.52V69H25.63V67.67h3.54v-1H25.63V65.38h1.52v-1H25.63v-1.3h3.54v-1H25.63V60.79h1.52v-1H25.63v-1.3h3.54v-1H25.63V56.2h1.52v-1H25.63V53.9h3.54v-1H25.63V51.61h1.52v-1H25.63V49.32h3.54v-1H25.63V47h1.52V46H25.63V44.73h3.54v-1H25.63v-1.3h1.52v-1H25.63V40.14h3.54v-1H25.63v-1.3h1.52v-1H25.63V35.55h3.54v-1H25.63V33.26h1.52v-1H25.63V31h3.54V30H25.63V28.67h1.52v-1H25.63v-1.3h3.54v-1H25.63V24.08h1.52v-1H25.63V21.79h3.54v-1H25.63v-1.3h1.52v-1H25.63V17.2h3.54v-1H25.63V14.9h1.52v-1H25.63V12.61h3.54v-1H25.63V10h1.52V9H25.63V7.75h3.54v-1H25.63V3.26L39.55,16.09v.11H36.17v1h3.38v1.29H38.19v1h1.36v1.3H36.17v1h3.38v1.29H38.19v1h1.36v1.29H36.17v1h3.38v1.3H38.19v1h1.36V30H36.17v1h3.38v1.3H38.19v1h1.36v1.29H36.17v1h3.38v1.29H38.19v1h1.36v1.3H36.17v1h3.38v1.29H38.19v1h1.36v1.3H36.17v1h3.38V46H38.19v1h1.36v1.3H36.17v1h3.38v1.29H38.19v1h1.36V52.9H36.17v1h3.38v1.3H38.19v1h1.36v1.29H36.17v1h3.38v1.3H38.19v1h1.36v1.29H36.17v1h3.38v1.3H38.19v1h1.36v1.29H36.17v1h3.38V69H38.19v1h1.36v1.3H36.17v1h3.38v1.29H38.19v1h1.36v1.3H36.17v1h3.38v1.29H38.19v1h1.36v1.3H36.17v1h3.38v1.29H38.19v1h1.36V85H36.17v1h3.38v1.3H38.19v1h1.36v1.29H36.17v1h3.38v1.3H38.19v1h1.36V94.2H36.17v1h3.38v2.18Zm48.74-82H40.25L26.41,2.62h48Z"/></svg>