<svg width="32" height="77" viewBox="0 0 32 77" fill="none" xmlns="http://www.w3.org/2000/svg">
<path d="M23.9829 0.29819L18.7959 3.30434C18.6259 3.40282 18.5683 3.61985 18.6672 3.78907L18.7184 3.87661C18.8173 4.04583 19.0353 4.10317 19.2052 4.00468L24.3922 0.998539C24.5622 0.90005 24.6197 0.683027 24.5208 0.513806L24.4697 0.426262C24.3708 0.257041 24.1528 0.199701 23.9829 0.29819Z" fill="#E49311"/>
<path d="M24.9335 1.99626L19.6469 4.80714C19.459 4.90705 19.388 5.13972 19.4883 5.32683L19.5043 5.35661C19.6046 5.54372 19.8383 5.61442 20.0262 5.51451L25.3128 2.70363C25.5008 2.60372 25.5717 2.37104 25.4714 2.18393L25.4554 2.15415C25.3551 1.96704 25.1214 1.89635 24.9335 1.99626Z" fill="#E49311"/>
<path d="M25.8174 3.741L20.4156 6.36449C20.2263 6.45646 20.1476 6.68386 20.24 6.87241L20.2511 6.89517C20.3435 7.08372 20.5718 7.16202 20.7612 7.07005L26.163 4.44656C26.3523 4.3546 26.431 4.1272 26.3386 3.93865L26.3275 3.91589C26.2351 3.72734 26.0068 3.64904 25.8174 3.741Z" fill="#E49311"/>
<path d="M26.6444 5.49403L21.2386 7.86822C21.0372 7.95664 20.946 8.19084 21.0348 8.39131L21.0451 8.41448C21.1339 8.61495 21.369 8.70579 21.5704 8.61737L26.9762 6.24317C27.1776 6.15475 27.2688 5.92056 27.18 5.72009L27.1697 5.69692C27.0809 5.49645 26.8458 5.40561 26.6444 5.49403Z" fill="#E49311"/>
<path d="M27.4047 7.25417L21.8637 9.48341C21.6814 9.55675 21.5933 9.76338 21.6669 9.94492L21.7114 10.0545C21.7851 10.236 21.9926 10.3237 22.1749 10.2504L27.7158 8.02115C27.8982 7.9478 27.9862 7.74118 27.9126 7.55964L27.8681 7.45007C27.7945 7.26853 27.587 7.18082 27.4047 7.25417Z" fill="#E49311"/>
<path d="M28.1237 9.06149L22.5124 11.0842C22.3077 11.158 22.2018 11.383 22.2759 11.5868L22.2903 11.6265C22.3644 11.8304 22.5904 11.9358 22.7951 11.862L28.4064 9.83931C28.6111 9.76552 28.717 9.54047 28.6429 9.33664L28.6285 9.29696C28.5544 9.09313 28.3284 8.98771 28.1237 9.06149Z" fill="#E49311"/>
<path d="M28.7658 10.8935L23.066 12.7377C22.8546 12.8061 22.7388 13.0323 22.8075 13.2429L22.8154 13.267C22.8841 13.4776 23.1113 13.5928 23.3228 13.5244L29.0225 11.6803C29.234 11.6118 29.3498 11.3856 29.281 11.175L29.2732 11.151C29.2045 10.9404 28.9773 10.8251 28.7658 10.8935Z" fill="#E49311"/>
<path d="M29.3749 12.7337L23.5977 14.3833C23.3884 14.443 23.2674 14.6604 23.3274 14.8688L23.3367 14.9012C23.3967 15.1096 23.615 15.2301 23.8243 15.1703L29.6015 13.5207C29.8108 13.461 29.9318 13.2436 29.8718 13.0352L29.8624 13.0028C29.8024 12.7944 29.5841 12.6739 29.3749 12.7337Z" fill="#E49311"/>
<path d="M29.8955 14.5979L24.045 16.0396C23.8428 16.0895 23.7194 16.2931 23.7695 16.4945L23.7878 16.5682C23.8378 16.7696 24.0423 16.8925 24.2446 16.8426L30.0951 15.4009C30.2973 15.3511 30.4207 15.1474 30.3706 14.946L30.3523 14.8723C30.3023 14.6709 30.0977 14.5481 29.8955 14.5979Z" fill="#E49311"/>
<path d="M30.2649 16.4813L24.4961 17.7128C24.2741 17.7602 24.1327 17.9778 24.1803 18.1989L24.1838 18.2154C24.2314 18.4365 24.45 18.5773 24.672 18.5299L30.4408 17.2984C30.6628 17.251 30.8042 17.0333 30.7566 16.8123L30.7531 16.7958C30.7055 16.5747 30.4869 16.4339 30.2649 16.4813Z" fill="#E49311"/>
<path d="M30.679 18.3772L24.7889 19.4325C24.577 19.4704 24.4361 19.6723 24.4742 19.8834L24.4832 19.9332C24.5213 20.1443 24.7241 20.2846 24.936 20.2466L30.8261 19.1913C31.038 19.1533 31.1789 18.9514 31.1408 18.7404L31.1318 18.6905C31.0936 18.4795 30.8909 18.3392 30.679 18.3772Z" fill="#E49311"/>
<path d="M31.0176 20.2905L25.0996 21.1187C24.8956 21.1473 24.7535 21.3351 24.7821 21.5382L24.7951 21.6301C24.8238 21.8333 25.0124 21.9748 25.2164 21.9462L31.1344 21.118C31.3383 21.0895 31.4805 20.9017 31.4518 20.6986L31.4388 20.6066C31.4101 20.4035 31.2215 20.262 31.0176 20.2905Z" fill="#E49311"/>
<path d="M31.2165 22.2262L25.3057 22.8345C25.0869 22.857 24.9278 23.0519 24.9504 23.2699L24.953 23.2951C24.9756 23.513 25.1714 23.6714 25.3902 23.6489L31.301 23.0407C31.5199 23.0181 31.679 22.8232 31.6563 22.6053L31.6537 22.5801C31.6311 22.3621 31.4354 22.2037 31.2165 22.2262Z" fill="#E49311"/>
<path d="M31.4377 24.1528L25.4677 24.5685C25.2575 24.5831 25.0991 24.7646 25.1138 24.9739L25.1179 25.0328C25.1326 25.2421 25.3149 25.3999 25.525 25.3853L31.4951 24.9696C31.7052 24.9549 31.8637 24.7734 31.849 24.5641L31.8449 24.5052C31.8302 24.2959 31.6479 24.1381 31.4377 24.1528Z" fill="#E49311"/>
<path d="M31.6328 26.0833L25.524 26.2745C25.3485 26.28 25.2108 26.4261 25.2163 26.6008L25.2227 26.8033C25.2282 26.978 25.3749 27.1152 25.5504 27.1097L31.6591 26.9186C31.8346 26.9131 31.9724 26.767 31.9669 26.5922L31.9605 26.3898C31.955 26.215 31.8082 26.0778 31.6328 26.0833Z" fill="#E49311"/>
<path d="M31.6185 28.0114L25.5915 28.0009C25.3809 28.0005 25.2098 28.1703 25.2094 28.3801L25.2093 28.4645C25.2089 28.6743 25.3794 28.8446 25.5901 28.845L31.6171 28.8555C31.8277 28.8558 31.9988 28.6861 31.9992 28.4763L31.9993 28.3919C31.9997 28.1821 31.8292 28.0117 31.6185 28.0114Z" fill="#E49311"/>
<path d="M31.6347 29.9426L25.5686 29.7422C25.3885 29.7363 25.2376 29.8769 25.2316 30.0562L25.2249 30.2587C25.2189 30.4381 25.3601 30.5883 25.5402 30.5943L31.6063 30.7947C31.7864 30.8006 31.9373 30.66 31.9433 30.4806L31.95 30.2782C31.956 30.0988 31.8148 29.9486 31.6347 29.9426Z" fill="#E49311"/>
<path d="M31.4881 31.888L25.5449 31.4534C25.3231 31.4372 25.1301 31.6031 25.1138 31.8239L25.1113 31.8576C25.0951 32.0785 25.2616 32.2706 25.4834 32.2868L31.4266 32.7214C31.6484 32.7377 31.8414 32.5718 31.8577 32.3509L31.8601 32.3173C31.8764 32.0964 31.7098 31.9042 31.4881 31.888Z" fill="#E49311"/>
<path d="M31.3577 33.8331L25.4429 33.1829C25.2195 33.1583 25.0185 33.3187 24.9938 33.5411L24.991 33.5663C24.9664 33.7887 25.1274 33.9889 25.3508 34.0135L31.2656 34.6637C31.4889 34.6883 31.69 34.5279 31.7146 34.3055L31.7174 34.2803C31.7421 34.0579 31.581 33.8577 31.3577 33.8331Z" fill="#E49311"/>
<path d="M31.0845 35.7329L25.2603 34.9075C25.0355 34.8757 24.8273 35.0313 24.7953 35.2552L24.7918 35.2802C24.7598 35.5041 24.9161 35.7114 25.1409 35.7432L30.9651 36.5686C31.1899 36.6005 31.398 36.4448 31.43 36.221L31.4336 36.1959C31.4656 35.9721 31.3093 35.7648 31.0845 35.7329Z" fill="#E49311"/>
<path d="M30.7862 37.6402L24.9492 36.6258C24.7255 36.5869 24.5125 36.736 24.4735 36.9587L24.4691 36.9837C24.4301 37.2064 24.5798 37.4185 24.8035 37.4573L30.6405 38.4718C30.8642 38.5106 31.0771 38.3616 31.1162 38.1388L31.1206 38.1139C31.1596 37.8912 31.0099 37.6791 30.7862 37.6402Z" fill="#E49311"/>
<path d="M30.4773 39.5573L24.5715 38.3181C24.386 38.2791 24.2039 38.3973 24.1648 38.5821L24.1351 38.7225C24.096 38.9072 24.2147 39.0886 24.4002 39.1275L30.306 40.3668C30.4915 40.4057 30.6736 40.2875 30.7127 40.1027L30.7424 39.9623C30.7815 39.7776 30.6628 39.5963 30.4773 39.5573Z" fill="#E49311"/>
<path d="M29.9986 41.4527L24.2271 40.0091C24.0092 39.9546 23.7881 40.0863 23.7334 40.3034L23.7272 40.3279C23.6725 40.5449 23.8048 40.7651 24.0227 40.8196L29.7941 42.2631C30.0121 42.3176 30.2331 42.1859 30.2879 41.9689L30.2941 41.9443C30.3488 41.7273 30.2165 41.5072 29.9986 41.4527Z" fill="#E49311"/>
<path d="M29.4853 43.3064L23.7867 41.6899C23.5818 41.6318 23.3685 41.7501 23.3101 41.9541L23.2962 42.0028C23.2378 42.2068 23.3566 42.4193 23.5614 42.4774L29.26 44.0938C29.4649 44.1519 29.6783 44.0336 29.7366 43.8297L29.7506 43.7809C29.8089 43.5769 29.6902 43.3645 29.4853 43.3064Z" fill="#E49311"/>
<path d="M28.9512 45.1901L23.2676 43.3512C23.0628 43.2849 22.8428 43.3965 22.7762 43.6005L22.7684 43.6246C22.7018 43.8285 22.8139 44.0476 23.0187 44.1138L28.7024 45.9528C28.9072 46.019 29.1272 45.9074 29.1937 45.7035L29.2016 45.6794C29.2681 45.4754 29.156 45.2564 28.9512 45.1901Z" fill="#E49311"/>
<path d="M28.3287 47.0162L22.7528 44.9953C22.546 44.9204 22.3174 45.0265 22.2422 45.2324L22.2335 45.2562C22.1582 45.4621 22.2648 45.6898 22.4716 45.7647L28.0475 47.7856C28.2542 47.8605 28.4829 47.7544 28.5581 47.5485L28.5668 47.5247C28.6421 47.3188 28.5355 47.0911 28.3287 47.0162Z" fill="#E49311"/>
<path d="M27.698 48.8551L22.043 46.5915C21.8801 46.5262 21.695 46.6049 21.6295 46.7671L21.5694 46.9159C21.5039 47.0781 21.5829 47.2624 21.7458 47.3276L27.4008 49.5913C27.5637 49.6565 27.7488 49.5779 27.8143 49.4157L27.8744 49.2669C27.9398 49.1047 27.8609 48.9203 27.698 48.8551Z" fill="#E49311"/>
<path d="M26.883 50.615L21.4073 48.2102C21.2124 48.1246 20.9848 48.2125 20.8988 48.4066L20.8885 48.4297C20.8026 48.6238 20.8909 48.8505 21.0858 48.9361L26.5615 51.341C26.7564 51.4266 26.984 51.3386 27.07 51.1446L27.0803 51.1214C27.1662 50.9273 27.0779 50.7006 26.883 50.615Z" fill="#E49311"/>
<path d="M26.065 52.3736L20.7044 49.7817C20.5107 49.688 20.2774 49.7684 20.1833 49.9613L20.1722 49.9841C20.0781 50.177 20.1589 50.4093 20.3526 50.503L25.7133 53.095C25.907 53.1887 26.1403 53.1082 26.2344 52.9153L26.2455 52.8925C26.3395 52.6996 26.2588 52.4673 26.065 52.3736Z" fill="#E49311"/>
<path d="M25.1791 54.112L19.8826 51.3195C19.7006 51.2236 19.4748 51.2927 19.3785 51.474L19.3626 51.5038C19.2662 51.6851 19.3356 51.9099 19.5177 52.0058L24.8142 54.7983C24.9962 54.8943 25.2219 54.8252 25.3183 54.6439L25.3342 54.6141C25.4306 54.4328 25.3611 54.208 25.1791 54.112Z" fill="#E49311"/>
<path d="M24.2718 55.8201L19.0816 52.8362C18.8951 52.729 18.6566 52.7926 18.5489 52.9784L18.5362 53.0003C18.4285 53.186 18.4924 53.4235 18.6789 53.5307L23.8691 56.5146C24.0556 56.6218 24.2941 56.5582 24.4018 56.3724L24.4145 56.3505C24.5222 56.1648 24.4583 55.9273 24.2718 55.8201Z" fill="#E49311"/>
<path d="M23.2767 57.4862L18.1904 54.3459C18.0114 54.2354 17.7762 54.2903 17.6652 54.4686L17.6518 54.4901C17.5408 54.6684 17.5959 54.9025 17.775 55.0131L22.8613 58.1534C23.0403 58.2639 23.2755 58.209 23.3865 58.0307L23.3999 58.0092C23.5109 57.8309 23.4557 57.5968 23.2767 57.4862Z" fill="#E49311"/>
<path d="M22.2317 59.1056L17.2516 55.7858C17.0765 55.6691 16.8396 55.7158 16.7224 55.8901L16.6894 55.9392C16.5722 56.1135 16.6191 56.3495 16.7941 56.4662L21.7743 59.786C21.9494 59.9027 22.1863 59.856 22.3035 59.6817L22.3365 59.6326C22.4537 59.4582 22.4068 59.2223 22.2317 59.1056Z" fill="#E49311"/>
<path d="M21.1177 60.7153L16.2768 57.2259C16.108 57.1042 15.8722 57.1418 15.75 57.3099L15.7301 57.3372C15.608 57.5053 15.6457 57.7401 15.8145 57.8618L20.6554 61.3512C20.8242 61.4728 21.06 61.4352 21.1822 61.2672L21.202 61.2398C21.3242 61.0718 21.2864 60.8369 21.1177 60.7153Z" fill="#E49311"/>
<path d="M19.9632 62.2656L15.2141 58.5841C15.0423 58.451 14.7947 58.4817 14.6609 58.6527L14.6453 58.6727C14.5116 58.8438 14.5424 59.0904 14.7142 59.2235L19.4633 62.905C19.6351 63.0382 19.8828 63.0074 20.0165 62.8364L20.0321 62.8164C20.1659 62.6454 20.135 62.3987 19.9632 62.2656Z" fill="#E49311"/>
<path d="M18.7528 63.7982L14.1356 59.9539C13.9704 59.8163 13.7244 59.8382 13.5863 60.0027L13.57 60.0221C13.4319 60.1867 13.4538 60.4315 13.619 60.5691L18.2362 64.4133C18.4014 64.5509 18.6473 64.529 18.7855 64.3645L18.8018 64.3451C18.9399 64.1806 18.918 63.9357 18.7528 63.7982Z" fill="#E49311"/>
<path d="M17.4559 65.2535L12.97 61.2455C12.8149 61.1069 12.5764 61.1198 12.4373 61.2742L12.4203 61.2931C12.2812 61.4475 12.2941 61.6849 12.4492 61.8235L16.9351 65.8315C17.0902 65.97 17.3287 65.9572 17.4678 65.8028L17.4848 65.7839C17.6239 65.6295 17.611 65.392 17.4559 65.2535Z" fill="#E49311"/>
<path d="M16.1295 66.7217L11.8124 62.5702C11.6709 62.4342 11.4455 62.4382 11.309 62.579L11.2913 62.5972C11.1547 62.7381 11.1586 62.9625 11.3001 63.0985L15.6172 67.2499C15.7587 67.3859 15.9841 67.382 16.1207 67.2412L16.1383 67.2229C16.2749 67.0821 16.271 66.8577 16.1295 66.7217Z" fill="#E49311"/>
<path d="M10.0487 63.7469L10.0365 63.7586C9.89337 63.8962 9.88939 64.1233 10.0276 64.2659L14.2438 68.6134C14.382 68.7559 14.61 68.7598 14.7532 68.6222L14.7654 68.6105C14.9085 68.4729 14.9125 68.2457 14.7743 68.1032L10.5581 63.7557C10.4199 63.6132 10.1918 63.6093 10.0487 63.7469Z" fill="#E49311"/>
<path d="M8.90257 64.9334L8.77049 65.0522C8.65238 65.1585 8.64315 65.34 8.74986 65.4576L12.8474 69.9732C12.9541 70.0908 13.1363 70.1 13.2544 69.9937L13.3865 69.8749C13.5046 69.7686 13.5138 69.5871 13.4071 69.4695L9.30964 64.9539C9.20292 64.8363 9.02067 64.8271 8.90257 64.9334Z" fill="#E49311"/>
<path d="M7.50081 66.0737L7.48136 66.0901C7.32021 66.2252 7.29958 66.4648 7.43528 66.6253L11.2792 71.1708C11.4149 71.3312 11.6555 71.3518 11.8167 71.2166L11.8361 71.2003C11.9973 71.0652 12.0179 70.8256 11.8822 70.6651L8.0383 66.1196C7.9026 65.9592 7.66196 65.9386 7.50081 66.0737Z" fill="#E49311"/>
<path d="M6.22089 67.1293L6.10749 67.2179C5.96749 67.3272 5.94299 67.5288 6.05276 67.6682L9.78733 72.4109C9.8971 72.5503 10.0996 72.5747 10.2396 72.4654L10.353 72.3769C10.493 72.2676 10.5175 72.0659 10.4077 71.9265L6.67314 67.1838C6.56337 67.0444 6.36089 67.02 6.22089 67.1293Z" fill="#E49311"/>
<path d="M4.74406 68.143L4.72351 68.1579C4.54951 68.2843 4.51131 68.5272 4.63819 68.7004L8.17929 73.536C8.30618 73.7092 8.5501 73.7473 8.7241 73.6209L8.74465 73.606C8.91865 73.4797 8.95685 73.2368 8.82996 73.0635L5.28886 68.228C5.16198 68.0547 4.91806 68.0167 4.74406 68.143Z" fill="#E49311"/>
<path d="M3.46459 69.131L3.30276 69.2393C3.1551 69.3381 3.11584 69.5374 3.21506 69.6844L6.58132 74.6728C6.68054 74.8198 6.88068 74.8589 7.02834 74.7601L7.19017 74.6518C7.33783 74.553 7.37709 74.3537 7.27787 74.2067L3.91161 69.2184C3.81239 69.0713 3.61225 69.0322 3.46459 69.131Z" fill="#E49311"/>
<path d="M1.95641 70.0643L1.84151 70.1361C1.67495 70.2401 1.62462 70.4589 1.72911 70.6248L4.90933 75.673C5.01381 75.8389 5.23355 75.889 5.40011 75.785L5.51501 75.7132C5.68158 75.6092 5.7319 75.3904 5.62741 75.2245L2.4472 70.1762C2.34271 70.0104 2.12298 69.9603 1.95641 70.0643Z" fill="#E49311"/>
<path d="M0.417846 70.9536L0.403164 70.9621C0.206526 71.0751 0.139152 71.3255 0.252681 71.5213L3.2238 76.6457C3.33733 76.8415 3.58877 76.9085 3.78541 76.7955L3.80009 76.7871C3.99673 76.674 4.0641 76.4236 3.95057 76.2278L0.979452 71.1035C0.865923 70.9077 0.614484 70.8406 0.417846 70.9536Z" fill="#E49311"/>
</svg>
