<svg width="89" height="86" viewBox="0 0 89 86" fill="none" xmlns="http://www.w3.org/2000/svg">
<path d="M58.5943 2.55741C58.5154 2.52646 58.4475 2.47262 58.3992 2.40274C58.3509 2.33287 58.3244 2.25008 58.323 2.16488L58.3103 0.426044C58.3099 0.357947 58.3258 0.290717 58.3569 0.230064C58.3879 0.169411 58.433 0.117168 58.4884 0.0777722C58.5438 0.0383763 58.6078 0.0130089 58.6749 0.00384178C58.7421 -0.00532532 58.8104 0.00196988 58.874 0.0251193C62.2958 1.24062 65.517 2.85141 68.5376 4.85754C78.8651 11.7229 85.2778 21.0895 87.7757 32.9575C88.807 37.8673 88.9073 43.1007 88.0766 48.6577C88.0658 48.7264 88.0384 48.7916 87.9968 48.8475C87.9552 48.9034 87.9007 48.9483 87.838 48.9783C87.7752 49.0082 87.7062 49.0224 87.637 49.0195C87.5678 49.0166 87.5004 48.9967 87.4408 48.9615L85.9023 48.0626C85.8307 48.0203 85.7733 47.9577 85.7371 47.8827C85.7009 47.8076 85.6876 47.7234 85.6988 47.6405C88.3817 27.7241 77.3195 9.87571 58.5943 2.55741Z" fill="#E49311"/>
<path d="M11.4804 12.121C16.3772 6.81164 22.058 2.93586 28.523 0.493613C28.5864 0.468997 28.6549 0.460248 28.7225 0.468162C28.7901 0.476076 28.8549 0.500427 28.9112 0.539053C28.9675 0.577679 29.0137 0.629439 29.0457 0.689902C29.0778 0.750365 29.0947 0.81768 29.0952 0.886088V2.62075C29.0953 2.7042 29.0704 2.78575 29.0235 2.85496C28.9767 2.92416 28.9101 2.97781 28.8324 3.009C10.4377 10.5172 -0.187926 29.3617 3.11802 48.8898C3.13192 48.9732 3.12036 49.0588 3.08485 49.1355C3.04933 49.2123 2.99149 49.2766 2.91882 49.3203L1.40148 50.2319C1.34264 50.2672 1.27608 50.2877 1.20751 50.2917C1.13895 50.2957 1.07044 50.283 1.00789 50.2547C0.945341 50.2265 0.890608 50.1836 0.848423 50.1296C0.806237 50.0756 0.777858 50.0123 0.765719 49.945C-0.587743 42.5676 -0.146952 35.3519 2.0881 28.2981C4.02081 22.2066 7.15157 16.8142 11.4804 12.121Z" fill="#E49311"/>
<path d="M16.3673 75.8713C16.3146 75.8287 16.273 75.7742 16.2459 75.7123C16.2188 75.6503 16.2071 75.5828 16.2117 75.5153C16.2162 75.4479 16.237 75.3826 16.2722 75.3248C16.3074 75.2671 16.356 75.2186 16.4139 75.1834L17.9143 74.2802C17.9877 74.2355 18.0729 74.214 18.1585 74.2186C18.244 74.2231 18.3259 74.2534 18.3932 74.3056C34.3127 86.5703 55.564 86.0891 71.1994 73.5037C71.2679 73.4495 71.3508 73.4172 71.4372 73.4112C71.5236 73.4052 71.6093 73.4257 71.6826 73.4699L73.1533 74.3351C73.2107 74.3686 73.2593 74.4152 73.295 74.4711C73.3308 74.527 73.3526 74.5906 73.3589 74.6565C73.3651 74.7225 73.3554 74.789 73.3307 74.8505C73.3061 74.912 73.2671 74.9668 73.2169 75.0104C71.0327 76.9433 68.6621 78.6132 66.1049 80.0201C54.996 86.1313 42.1495 87.4819 30.1336 83.426C25.1634 81.7491 20.5746 79.2308 16.3673 75.8713Z" fill="#E49311"/>
</svg>
