<svg width="78" height="76" viewBox="0 0 78 76" fill="none" xmlns="http://www.w3.org/2000/svg">
<path d="M56.4129 4.36464L56.095 4.47015L52.7679 6.85891C52.7142 6.8978 52.6704 6.94871 52.6401 7.00754C52.6098 7.06637 52.5938 7.13148 52.5934 7.19759C52.5929 7.26371 52.6082 7.32902 52.6377 7.38822C52.6673 7.44742 52.7104 7.49889 52.7636 7.53845C52.8908 7.63411 53.0335 7.70722 53.1917 7.75787C54.0775 8.04064 57.3581 6.21741 58.2312 5.7194L58.5321 5.59699C71.5101 13.4006 79.0332 28.6155 76.5665 43.6657C72.3789 69.2123 44.8675 83.5281 21.3402 71.6474L21.3571 71.4533H21.7428C21.8363 71.4533 21.9257 71.4237 21.9971 71.3689L24.4257 69.5288C24.4842 69.484 24.53 69.4249 24.5585 69.3572C24.587 69.2895 24.5972 69.2155 24.5882 69.1426C24.5792 69.0697 24.5513 69.0004 24.5072 68.9416C24.4631 68.8827 24.4043 68.8364 24.3367 68.8071L23.578 68.4736C23.48 68.4303 23.3688 68.4274 23.2686 68.4652C21.918 68.9379 20.6338 69.5471 19.4159 70.2927L19.221 70.4151C8.51052 63.886 1.52564 52.6722 0.872925 40.1163L0.995842 39.9939L4.39928 41.3909C4.46551 41.4181 4.53759 41.4281 4.60879 41.4201C4.67999 41.412 4.74797 41.3862 4.80639 41.3449C4.86481 41.3036 4.91176 41.2482 4.94285 41.1839C4.97394 41.1196 4.98816 41.0485 4.98418 40.9773C4.41058 30.2657 7.89313 21.2297 15.4318 13.8692C16.3954 12.9266 17.9169 11.69 19.9966 10.1593C20.0481 10.1212 20.0904 10.0722 20.1205 10.016C20.1506 9.9598 20.1676 9.89775 20.1704 9.83436C20.1958 9.12954 20.6832 5.22559 20.3865 4.96392V4.78669C31.72 -1.24437 44.9396 -1.45962 56.4129 4.36464ZM70.4844 38.2972C70.4844 29.9313 67.1469 21.908 61.2062 15.9924C55.2654 10.0768 47.2081 6.75339 38.8066 6.75339C30.4051 6.75339 22.3478 10.0768 16.407 15.9924C10.4663 21.908 7.1288 29.9313 7.1288 38.2972C7.1288 42.4396 7.94817 46.5415 9.54013 50.3686C11.1321 54.1956 13.4655 57.673 16.407 60.6021C19.3486 63.5312 22.8407 65.8547 26.684 67.44C30.5274 69.0252 34.6466 69.8411 38.8066 69.8411C42.9666 69.8411 47.0858 69.0252 50.9292 67.44C54.7725 65.8547 58.2646 63.5312 61.2062 60.6021C64.1477 57.673 66.4811 54.1956 68.073 50.3686C69.665 46.5415 70.4844 42.4396 70.4844 38.2972ZM76.5199 35.8747L73.1673 34.4566C73.1005 34.4282 73.0275 34.4175 72.9554 34.4252C72.8832 34.433 72.8142 34.4591 72.7551 34.501C72.6959 34.543 72.6486 34.5994 72.6176 34.6647C72.5866 34.7301 72.5731 34.8023 72.5782 34.8744C73.4484 46.1093 69.7978 55.5688 61.6261 63.2529C60.9734 63.8663 59.668 64.8961 57.7098 66.3423C57.6618 66.3783 57.6219 66.4236 57.5927 66.4752C57.5635 66.5269 57.5456 66.5836 57.5403 66.642L57.2224 70.2041C57.1716 70.7556 57.3849 70.8892 57.8624 70.605C67.266 64.9777 73.2845 56.8181 75.918 46.1262C76.0649 45.5269 76.2232 44.4409 76.3927 42.868C76.6301 40.7114 77.0539 38.5969 76.7784 36.2166C76.7694 36.1423 76.7408 36.0716 76.6954 36.0116C76.65 35.9516 76.5895 35.9044 76.5199 35.8747Z" fill="#E49311"/>
</svg>
