<svg width="13" height="13" viewBox="0 0 13 13" fill="none" xmlns="http://www.w3.org/2000/svg">
<path d="M5.47154 0.165105L8.38332 0.106012C8.41589 0.105211 8.4481 0.113139 8.47656 0.128938C8.50503 0.144738 8.52871 0.167849 8.54515 0.195862C8.5616 0.223876 8.5702 0.255736 8.57007 0.288185C8.56993 0.320634 8.56106 0.352479 8.54438 0.380354L7.06094 2.87884C7.04481 2.90596 7.02187 2.92846 6.99438 2.94407C6.96688 2.95967 6.93577 2.96787 6.90412 2.96787C6.87247 2.96787 6.84136 2.95967 6.81386 2.94407C6.78636 2.92846 6.76343 2.90596 6.7473 2.87884L5.31472 0.439446C5.29824 0.41188 5.28939 0.380442 5.28907 0.34836C5.28876 0.316278 5.29698 0.284692 5.31292 0.25681C5.32886 0.228927 5.35194 0.205737 5.37981 0.189628C5.40767 0.173519 5.43932 0.165065 5.47154 0.165105Z" fill="#E49311"/>
<path d="M1.11011 4.43615L3.61924 5.89219C3.64413 5.90584 3.66495 5.9258 3.67958 5.95005C3.69422 5.97429 3.70215 6.00198 3.70258 6.03026C3.70301 6.05855 3.69592 6.08642 3.68203 6.1111C3.66814 6.13577 3.64794 6.15636 3.62349 6.17075L1.14825 7.69012C1.12395 7.7051 1.0961 7.71336 1.06753 7.71407C1.03895 7.71479 1.0107 7.70793 0.985675 7.69419C0.960652 7.68044 0.939759 7.66031 0.925129 7.63587C0.910499 7.61142 0.902662 7.58354 0.902429 7.55508L0.864285 4.5754C0.863757 4.54659 0.871034 4.51817 0.885355 4.49313C0.899677 4.46808 0.920513 4.44736 0.945669 4.43311C0.970825 4.41885 0.99937 4.4116 1.02831 4.41214C1.05725 4.41267 1.0855 4.42097 1.11011 4.43615Z" fill="#E49311"/>
<path d="M12.6853 7.78289L10.155 6.25931C10.1313 6.24502 10.1117 6.22491 10.0981 6.20088C10.0845 6.17686 10.0774 6.14974 10.0774 6.12216C10.0774 6.09458 10.0845 6.06747 10.0981 6.04344C10.1117 6.01941 10.1313 5.99926 10.155 5.98497L12.6938 4.4825C12.7181 4.46752 12.746 4.45926 12.7745 4.45855C12.8031 4.45783 12.8313 4.46469 12.8564 4.47843C12.8814 4.49218 12.9023 4.51231 12.9169 4.53675C12.9315 4.5612 12.9394 4.58908 12.9396 4.61754L12.9269 7.64364C12.927 7.67182 12.9196 7.69952 12.9055 7.72395C12.8914 7.74839 12.871 7.76867 12.8465 7.78279C12.822 7.79691 12.7943 7.80436 12.7659 7.80438C12.7376 7.80439 12.7098 7.79699 12.6853 7.78289Z" fill="#E49311"/>
<path d="M5.28082 11.7586L6.82785 9.24321C6.84256 9.21984 6.86307 9.20063 6.88741 9.18746C6.91175 9.17429 6.93909 9.16756 6.96679 9.16799C6.99449 9.16841 7.0216 9.17597 7.04552 9.18988C7.06944 9.20379 7.08936 9.22362 7.10334 9.24743L8.6334 11.7713C8.64755 11.7957 8.655 11.8233 8.65498 11.8515C8.65497 11.8797 8.64749 11.9074 8.63331 11.9318C8.61913 11.9562 8.59873 11.9764 8.5742 11.9905C8.54966 12.0045 8.52184 12.0119 8.49354 12.0118L5.41645 12.0034C5.38788 12.0031 5.35988 11.9954 5.33533 11.9808C5.31078 11.9662 5.29055 11.9454 5.27675 11.9205C5.26294 11.8956 5.25605 11.8674 5.25676 11.839C5.25748 11.8105 5.26578 11.7828 5.28082 11.7586Z" fill="#E49311"/>
</svg>
