<?xml version="1.0" standalone="no"?>
<!DOCTYPE svg PUBLIC "-//W3C//DTD SVG 20010904//EN"
 "http://www.w3.org/TR/2001/REC-SVG-20010904/DTD/svg10.dtd">
<svg version="1.0" xmlns="http://www.w3.org/2000/svg"
 width="640.000000pt" height="1280.000000pt" viewBox="0 0 640.000000 1280.000000"
 preserveAspectRatio="xMidYMid meet">
<metadata>
Created by potrace 1.15, written by Peter Selinger 2001-2017
</metadata>
<g transform="translate(0.000000,1280.000000) scale(0.100000,-0.100000)"
fill="#000000" stroke="none">
<path d="M3327 12729 c-70 -11 -131 -51 -179 -119 -36 -52 -43 -57 -53 -43 -8
11 -32 18 -74 21 -109 8 -179 -40 -287 -198 -38 -56 -45 -75 -50 -130 -4 -36
-13 -83 -21 -105 -30 -80 -43 -141 -43 -195 0 -36 -9 -75 -26 -115 -14 -33
-29 -92 -34 -132 -5 -40 -22 -103 -38 -140 -18 -42 -32 -95 -36 -138 -5 -50
-17 -91 -42 -144 -23 -47 -39 -99 -45 -141 -4 -36 -18 -88 -30 -115 -35 -81
-39 -111 -23 -174 18 -66 50 -125 111 -200 25 -30 54 -73 66 -95 l22 -41 5
-2691 5 -2692 -45 23 c-110 57 -234 184 -292 298 -44 89 -80 188 -75 209 3 10
1 18 -4 18 -5 0 -7 11 -3 25 4 15 2 25 -5 25 -6 0 -8 12 -4 32 3 18 2 29 -3
26 -5 -4 -10 30 -11 75 -1 44 -6 83 -11 86 -5 3 -14 39 -21 79 -14 92 -43 149
-77 158 -14 4 -43 3 -65 0 -134 -21 -237 -153 -296 -375 -15 -59 -30 -97 -34
-90 -12 20 -78 -5 -126 -46 -56 -48 -98 -119 -135 -229 -25 -76 -31 -112 -36
-216 -10 -255 41 -493 248 -1150 156 -496 155 -492 155 -655 0 -132 -2 -145
-33 -235 -18 -52 -106 -246 -197 -430 -90 -184 -179 -378 -199 -431 -141 -382
-178 -739 -106 -1014 77 -290 313 -577 645 -785 185 -115 497 -239 725 -289
229 -49 515 -65 738 -40 118 12 334 55 376 73 17 8 96 26 176 41 374 70 693
204 960 404 101 75 300 276 383 386 65 86 187 309 187 341 0 8 4 13 9 10 5 -4
7 4 3 16 -4 15 -2 19 7 13 10 -6 11 -2 6 15 -4 14 -3 20 3 16 13 -8 25 40 16
66 -4 13 -2 18 4 14 13 -8 27 93 18 131 -5 21 -4 24 4 13 7 -11 10 9 10 70 0
63 -3 81 -11 70 -8 -11 -9 4 -4 53 4 52 3 67 -6 61 -9 -5 -11 5 -7 39 3 26 2
45 -1 42 -4 -2 -14 35 -24 83 -59 314 -216 688 -498 1187 -175 311 -183 331
-180 438 1 65 27 162 117 445 42 130 91 300 110 377 35 145 56 335 37 335 -6
0 -14 25 -18 55 -18 149 -117 291 -188 269 -56 -17 -89 -67 -182 -279 -56
-126 -114 -224 -146 -243 -11 -8 -18 -9 -15 -3 4 5 -11 28 -32 50 -33 35 -45
41 -80 41 -32 0 -49 -7 -77 -32 -40 -34 -110 -162 -99 -180 5 -8 -17 -9 -73
-6 -111 6 -190 44 -280 135 -37 37 -87 98 -110 134 l-43 65 -10 290 c-5 159
-14 431 -20 604 -11 324 -22 668 -40 1220 -32 978 -52 1590 -81 2500 -26 803
-35 1017 -46 1026 -38 32 20 136 154 276 111 115 133 158 140 272 7 112 -15
227 -86 446 -79 247 -86 297 -75 529 4 102 9 251 9 331 0 136 -1 148 -25 189
-14 25 -39 53 -57 63 -41 24 -116 36 -176 27z"/>
</g>
</svg>
