<svg width="231" height="231" viewBox="0 0 231 231" fill="none" xmlns="http://www.w3.org/2000/svg">
<rect width="14.1919" height="39.7591" transform="matrix(0.967225 0.254006 -0.254089 0.967158 120.011 123.03)" fill="#F5A020"/>
<rect width="14.1901" height="83.1221" transform="matrix(-0.250546 0.968082 -0.968148 -0.250464 200.449 143.873)" fill="#F5A020"/>
<path d="M198.256 143.53L197.404 146.202L195.647 147.108L193.081 146.869L191.378 152.212L194.039 153.072L195.445 156.03L194.593 158.702L192.575 159.966L195.599 165.214L197.616 163.95L199.873 164.237L201.848 166.79L201.566 169.056L206.794 170.154L208.572 167.339L211.968 166.815L214.869 169.225L219.213 166.649L218.734 163.548L220.203 160.781L223.908 160.208L225.042 155.27L221.88 153.218L221.14 150.475L224.105 147.159L220.917 142.889L218.495 143.58L215.381 141.838L215.163 138.379L211.835 137.305L209.935 137.281L206.661 140.644L204.404 140.358L202.168 138.163L197.516 140.786L198.256 143.53Z" fill="#F5A020"/>
<path d="M195.519 146.285C197.564 145.785 198.318 143.265 196.763 141.755C196.673 141.667 196.602 141.561 196.555 141.444C196.508 141.327 196.487 141.202 196.492 141.076C196.497 140.95 196.529 140.827 196.585 140.714C196.641 140.601 196.72 140.501 196.818 140.421C198.469 139.046 200.307 137.973 202.331 137.204C202.412 137.174 202.498 137.162 202.584 137.169C202.67 137.175 202.753 137.201 202.828 137.243C202.903 137.285 202.968 137.343 203.018 137.413C203.068 137.483 203.102 137.563 203.118 137.647C203.723 140.908 209.011 140.384 209.115 136.531C209.116 136.467 209.131 136.404 209.157 136.345C209.184 136.286 209.222 136.234 209.27 136.19C209.318 136.147 209.374 136.113 209.436 136.092C209.497 136.07 209.562 136.061 209.627 136.065C211.865 136.206 214.014 136.7 216.077 137.549C216.294 137.638 216.382 137.798 216.342 138.028L216.008 140.064C215.975 140.264 215.989 140.461 216.048 140.654C216.423 141.873 217.218 142.552 218.434 142.689C219.482 142.813 220.15 142.196 220.961 141.608C221.051 141.543 221.162 141.512 221.272 141.522C221.382 141.532 221.485 141.581 221.56 141.661C223.172 143.323 224.349 145.251 225.09 147.445C225.119 147.534 225.116 147.631 225.081 147.718C225.045 147.804 224.98 147.876 224.897 147.919C221.587 149.61 221.679 153.622 225.664 154.161C225.831 154.184 225.983 154.27 226.089 154.401C226.196 154.531 226.248 154.698 226.236 154.866C226.071 157.056 225.558 159.166 224.698 161.197C224.605 161.419 224.442 161.499 224.208 161.438L222.511 160.983C222.281 160.921 222.053 160.921 221.825 160.981C220.297 161.399 219.578 162.385 219.67 163.939C219.719 164.75 220.255 165.301 220.702 165.968C220.759 166.057 220.784 166.162 220.771 166.266C220.757 166.369 220.707 166.463 220.63 166.531C218.913 168.03 217.005 169.24 214.906 170.16C214.846 170.187 214.782 170.2 214.716 170.199C214.651 170.199 214.586 170.185 214.527 170.159C214.467 170.132 214.414 170.093 214.37 170.045C214.326 169.997 214.293 169.94 214.272 169.878C213.465 167.504 211.821 166.927 209.341 168.147C208.088 168.759 208.442 170.017 207.925 171.035C207.882 171.118 207.814 171.186 207.731 171.23C207.648 171.273 207.554 171.29 207.461 171.278C205.266 171 203.146 170.437 201.101 169.591C200.897 169.508 200.817 169.357 200.859 169.139L201.218 167.391C201.258 167.207 201.252 167.022 201.202 166.835C200.786 165.293 199.777 164.557 198.174 164.627C197.922 164.64 197.692 164.718 197.485 164.86L196.175 165.753C196.083 165.815 195.973 165.841 195.863 165.828C195.754 165.814 195.653 165.762 195.579 165.68C194.049 163.976 192.887 162.044 192.091 159.884C192.06 159.8 192.061 159.707 192.092 159.623C192.123 159.538 192.183 159.466 192.261 159.42L193.601 158.636C193.78 158.532 193.924 158.392 194.032 158.214C195.109 156.496 194.856 154.978 193.271 153.658C193.101 153.519 192.909 153.429 192.695 153.385L191.306 153.112C191.087 153.069 190.983 152.94 190.992 152.723C191.078 150.431 191.605 148.25 192.574 146.181C192.621 146.08 192.702 145.998 192.802 145.949C192.902 145.9 193.015 145.887 193.123 145.912C193.997 146.101 194.643 146.496 195.519 146.285ZM198.634 141.32C200.174 145.572 198.114 147.951 193.838 147.787C193.625 147.778 193.494 147.876 193.445 148.082L192.673 151.309C192.603 151.594 192.709 151.775 192.992 151.849C196.87 152.937 197.32 157.903 194.248 160.147C194.023 160.308 193.984 160.507 194.13 160.742L195.86 163.551C195.918 163.647 196.012 163.716 196.122 163.744C196.232 163.772 196.349 163.757 196.449 163.701C199.982 161.646 203.125 164.763 202.804 168.357C202.785 168.563 202.874 168.691 203.073 168.741L206.26 169.51C206.502 169.57 206.663 169.482 206.74 169.246C207.979 165.377 212.716 165.032 215.17 167.919C215.337 168.122 215.533 168.155 215.757 168.019L218.451 166.373C218.495 166.346 218.528 166.307 218.546 166.26C218.564 166.214 218.566 166.163 218.551 166.116C217.411 162.436 219.104 158.668 223.315 159.565C223.565 159.62 223.719 159.522 223.778 159.272L224.541 156.066C224.562 155.976 224.551 155.881 224.509 155.799C224.467 155.717 224.398 155.653 224.313 155.619C220.6 154.042 219.6 149.866 222.975 147.201C223.063 147.131 223.124 147.032 223.145 146.922C223.167 146.813 223.148 146.701 223.093 146.606L221.463 143.832C221.343 143.627 221.173 143.571 220.954 143.664C217.235 145.253 213.851 143.086 214.486 138.93C214.502 138.814 214.475 138.697 214.41 138.601C214.344 138.505 214.245 138.438 214.133 138.413L210.958 137.686C210.756 137.641 210.624 137.718 210.562 137.918C209.46 141.602 204.136 142.512 202.049 139.245C201.996 139.163 201.913 139.104 201.817 139.082C201.721 139.06 201.62 139.077 201.536 139.128L198.819 140.79C198.614 140.915 198.552 141.092 198.634 141.32Z" fill="#F5A020"/>
<path d="M216.78 152.418C217.115 154.588 216.575 156.802 215.277 158.573C213.98 160.344 212.032 161.527 209.862 161.862C207.692 162.197 205.478 161.657 203.706 160.359C201.935 159.062 200.751 157.115 200.416 154.945C200.081 152.775 200.622 150.562 201.919 148.791C203.217 147.02 205.165 145.836 207.335 145.501C209.505 145.166 211.719 145.707 213.49 147.004C215.262 148.301 216.445 150.249 216.78 152.418ZM215.115 152.695C214.848 150.966 213.905 149.414 212.493 148.38C211.082 147.347 209.317 146.916 207.588 147.183C205.859 147.45 204.307 148.393 203.273 149.804C202.239 151.215 201.808 152.979 202.075 154.708C202.342 156.437 203.285 157.988 204.697 159.022C206.108 160.056 207.873 160.486 209.602 160.219C211.331 159.953 212.883 159.01 213.917 157.599C214.951 156.187 215.382 154.423 215.115 152.695Z" fill="#181619"/>
<ellipse cx="7.33272" cy="7.33134" rx="7.33272" ry="7.33134" transform="matrix(0.98829 -0.152588 0.152647 0.988281 199.767 147.627)" fill="#181619"/>
<rect width="35.1841" height="13.2441" transform="matrix(0.964869 0.262798 -0.262885 0.964808 137.917 153.63)" fill="#F5A020"/>
<rect width="35.2228" height="13.2441" transform="matrix(0.967793 0.251816 -0.2519 0.967735 107.587 172.199)" fill="#F5A020"/>
<rect width="38.812" height="15.2786" transform="matrix(-0.265433 0.964111 -0.964172 -0.265345 152.371 157.684)" fill="#F5A020"/>
<rect width="14.1901" height="39.7642" transform="matrix(-0.2594 0.965748 -0.965815 -0.259315 108.33 120.134)" fill="#F5A020"/>
<rect width="14.1919" height="83.1114" transform="matrix(-0.966757 -0.255779 0.255863 -0.966691 87.042 200.441)" fill="#F5A020"/>
<path d="M87.3967 198.251L84.7291 197.385L83.8323 195.623L84.0854 193.059L78.7503 191.327L77.8763 193.983L74.9097 195.372L72.2422 194.506L70.9889 192.481L65.7227 195.475L66.9759 197.5L66.6769 199.755L64.1127 201.715L61.8476 201.42L60.7206 206.641L63.5261 208.434L64.0319 211.832L61.6057 214.72L64.1581 219.077L67.2627 218.615L70.0222 220.099L70.574 223.806L75.5066 224.967L77.5764 221.817L80.3245 221.093L83.6244 224.075L87.9133 220.911L87.235 218.485L88.9943 215.382L92.4553 215.182L93.5477 211.862L93.5823 209.962L90.2364 206.67L90.5355 204.415L92.7432 202.192L90.1448 197.526L87.3967 198.251Z" fill="#F5A020"/>
<path d="M84.6558 195.499C85.1443 197.546 87.6606 198.314 89.1796 196.768C89.2679 196.678 89.3742 196.608 89.4914 196.562C89.6087 196.516 89.7343 196.495 89.8602 196.501C89.986 196.507 90.1092 196.539 90.2218 196.596C90.3343 196.652 90.4337 196.732 90.5134 196.83C91.8799 198.489 92.9422 200.332 93.7004 202.36C93.73 202.441 93.7417 202.527 93.7345 202.613C93.7273 202.699 93.7015 202.782 93.6589 202.857C93.6163 202.931 93.5579 202.996 93.4878 203.045C93.4176 203.095 93.3375 203.129 93.253 203.144C89.9879 203.731 90.4836 209.021 94.3365 209.146C94.4006 209.148 94.4638 209.162 94.5223 209.189C94.5807 209.216 94.6331 209.255 94.6763 209.303C94.7196 209.351 94.7528 209.408 94.774 209.469C94.7952 209.531 94.804 209.596 94.7997 209.661C94.6466 211.897 94.1401 214.044 93.2802 216.101C93.1899 216.318 93.0297 216.405 92.7995 216.363L90.7645 216.018C90.5652 215.984 90.3684 215.997 90.1743 216.055C88.9531 216.423 88.2702 217.215 88.1257 218.429C87.9964 219.477 88.6096 220.147 89.1934 220.962C89.2582 221.052 89.2882 221.163 89.2778 221.273C89.2673 221.384 89.2172 221.486 89.1368 221.56C87.4656 223.163 85.5308 224.329 83.3324 225.058C83.2432 225.087 83.1467 225.083 83.06 225.047C82.9734 225.011 82.9024 224.945 82.8596 224.862C81.1869 221.543 77.173 221.614 76.6121 225.594C76.5881 225.761 76.5017 225.913 76.3704 226.019C76.239 226.124 76.0725 226.176 75.9045 226.163C73.7148 225.985 71.6067 225.461 69.58 224.591C69.359 224.496 69.2797 224.333 69.3421 224.099L69.8062 222.405C69.8692 222.176 69.8711 221.947 69.8117 221.719C69.4023 220.189 68.4201 219.465 66.865 219.549C66.054 219.593 65.4996 220.126 64.8303 220.569C64.7413 220.626 64.6354 220.65 64.5321 220.636C64.4287 220.622 64.3348 220.572 64.2678 220.494C62.7774 218.769 61.5778 216.855 60.669 214.752C60.6433 214.692 60.6304 214.627 60.631 214.561C60.6317 214.496 60.6459 214.432 60.6728 214.372C60.6997 214.312 60.7387 214.259 60.7873 214.216C60.8359 214.172 60.893 214.139 60.9551 214.119C63.3339 213.325 63.92 211.685 62.7134 209.198C62.1083 207.943 60.8479 208.289 59.8323 207.767C59.7495 207.724 59.6821 207.655 59.6391 207.572C59.5961 207.489 59.5796 207.394 59.5919 207.302C59.8824 205.109 60.4567 202.992 61.3149 200.952C61.3988 200.749 61.5496 200.669 61.7674 200.713L63.5144 201.082C63.6978 201.122 63.8831 201.118 64.0702 201.069C65.615 200.661 66.3569 199.656 66.2957 198.053C66.2836 197.801 66.2071 197.571 66.0664 197.363L65.1798 196.048C65.1189 195.956 65.0931 195.846 65.1071 195.736C65.1211 195.627 65.1739 195.526 65.256 195.453C66.9691 193.933 68.9081 192.781 71.073 191.998C71.1572 191.967 71.2496 191.968 71.3342 191.999C71.4188 192.031 71.4902 192.091 71.5359 192.17L72.3127 193.514C72.4155 193.694 72.5553 193.838 72.732 193.947C74.4444 195.034 75.9648 194.788 77.2933 193.211C77.433 193.042 77.5249 192.851 77.5691 192.637L77.8506 191.25C77.8942 191.032 78.0245 190.928 78.2414 190.938C80.5335 191.037 82.7115 191.576 84.7754 192.555C84.8763 192.604 84.9577 192.685 85.0061 192.785C85.0544 192.885 85.0668 192.998 85.0412 193.106C84.8479 193.979 84.4493 194.622 84.6558 195.499ZM89.6041 198.641C85.3428 200.157 82.9747 198.085 83.1624 193.811C83.1729 193.598 83.0752 193.466 82.8692 193.416L79.6462 192.626C79.3609 192.555 79.1801 192.66 79.1038 192.942C77.9943 196.814 73.025 197.236 70.7979 194.152C70.6376 193.927 70.4393 193.886 70.2032 194.031L67.3846 195.746C67.2881 195.803 67.2181 195.897 67.1894 196.006C67.1608 196.116 67.1758 196.233 67.2313 196.333C69.267 199.877 66.1325 203.003 62.539 202.661C62.3332 202.641 62.2049 202.73 62.1541 202.928L61.3666 206.111C61.3054 206.353 61.3927 206.513 61.6284 206.592C65.4917 207.852 65.8103 212.59 62.9092 215.028C62.7057 215.193 62.6715 215.389 62.8064 215.614L64.4381 218.317C64.464 218.36 64.5034 218.394 64.5498 218.412C64.5962 218.431 64.647 218.433 64.694 218.418C68.3806 217.298 72.1403 219.011 71.2198 223.217C71.164 223.466 71.261 223.621 71.5108 223.681L74.7133 224.462C74.8034 224.483 74.8982 224.472 74.9803 224.431C75.0625 224.39 75.1267 224.321 75.1614 224.236C76.7587 220.533 80.9417 219.555 83.5882 222.944C83.6583 223.033 83.757 223.094 83.8662 223.116C83.9754 223.139 84.0878 223.12 84.183 223.065L86.9658 221.452C87.172 221.332 87.2291 221.163 87.1374 220.944C85.5686 217.217 87.7539 213.845 91.9079 214.503C92.0233 214.52 92.1408 214.493 92.2368 214.428C92.3329 214.363 92.4005 214.265 92.4262 214.153L93.1711 210.982C93.2172 210.781 93.1404 210.648 92.9409 210.585C89.2629 209.463 88.3812 204.135 91.6604 202.067C91.7435 202.014 91.8025 201.931 91.825 201.835C91.8474 201.739 91.8315 201.639 91.7806 201.554L90.1328 198.829C90.0092 198.623 89.833 198.56 89.6041 198.641Z" fill="#F5A020"/>
<path d="M78.4065 216.722C76.2347 217.045 74.0235 216.492 72.2593 215.185C70.4951 213.879 69.3224 211.924 68.9992 209.753C68.6761 207.582 69.2289 205.371 70.536 203.607C71.8432 201.843 73.7977 200.671 75.9695 200.348C78.1412 200.025 80.3525 200.577 82.1167 201.884C83.8809 203.191 85.0536 205.145 85.3767 207.317C85.6999 209.488 85.1471 211.699 83.8399 213.463C82.5328 215.226 80.5783 216.399 78.4065 216.722ZM78.1395 215.055C79.87 214.798 81.4274 213.863 82.469 212.458C83.5106 211.052 83.9511 209.291 83.6935 207.561C83.436 205.83 82.5016 204.273 81.0958 203.232C79.6901 202.191 77.9281 201.75 76.1976 202.008C74.467 202.265 72.9096 203.199 71.8681 204.605C70.8265 206.01 70.386 207.772 70.6435 209.502C70.901 211.232 71.8354 212.789 73.2412 213.831C74.647 214.872 76.4089 215.313 78.1395 215.055Z" fill="#181619"/>
<ellipse cx="7.33134" cy="7.33272" rx="7.33134" ry="7.33272" transform="matrix(0.147214 0.989104 -0.989113 0.147157 83.2908 199.737)" fill="#181619"/>
<rect width="35.1793" height="13.2458" transform="matrix(-0.268183 0.96335 -0.963411 -0.268094 77.627 137.867)" fill="#F5A020"/>
<rect width="35.2179" height="13.2459" transform="matrix(-0.257214 0.966336 -0.966395 -0.257128 59.2244 107.443)" fill="#F5A020"/>
<rect width="38.8172" height="15.2765" transform="matrix(-0.9627 -0.270637 0.270727 -0.962638 73.4934 152.295)" fill="#F5A020"/>
<rect width="14.1919" height="39.7591" transform="matrix(-0.966917 -0.255175 0.255258 -0.96685 111.207 108.499)" fill="#F5A020"/>
<rect width="14.1901" height="83.1221" transform="matrix(0.251717 -0.967779 0.967845 0.251634 30.7922 87.5596)" fill="#F5A020"/>
<path d="M32.9849 87.905L33.8399 85.2343L35.5977 84.3301L38.1632 84.5721L39.8732 79.2307L37.2127 78.3683L35.811 75.4083L36.666 72.7376L38.6851 71.4759L35.6679 66.2236L33.6488 67.4852L31.3921 67.1959L29.4203 64.6407L29.7052 62.3748L24.4791 61.2704L22.6977 64.083L19.3008 64.6033L16.4025 62.1899L12.0556 64.7605L12.5308 67.8624L11.0582 70.6277L7.35249 71.1953L6.21254 76.1319L9.37204 78.1878L10.1086 80.9322L7.13944 84.2442L10.3228 88.5187L12.7458 87.8301L15.8577 89.5757L16.0717 93.0351L19.3975 94.1131L21.2979 94.1395L24.5758 90.7803L26.8325 91.0696L29.0656 93.2673L33.7214 90.6494L32.9849 87.905Z" fill="#F5A020"/>
<path d="M35.7246 85.1533C33.679 85.6505 32.9215 88.1695 34.4745 89.6816C34.5649 89.7695 34.6357 89.8754 34.6822 89.9924C34.7288 90.1094 34.7501 90.235 34.7449 90.3608C34.7396 90.4867 34.7078 90.61 34.6515 90.7228C34.5953 90.8355 34.5158 90.9352 34.4184 91.0153C32.7654 92.3886 30.9262 93.4587 28.9008 94.2254C28.8201 94.2553 28.7339 94.2673 28.6481 94.2605C28.5623 94.2537 28.4791 94.2283 28.4042 94.186C28.3294 94.1437 28.2647 94.0856 28.2147 94.0157C28.1647 93.9458 28.1307 93.8659 28.1149 93.7814C27.5135 90.5195 22.225 91.0378 22.1165 94.8904C22.1151 94.9546 22.1007 95.0178 22.0739 95.0763C22.0471 95.1348 22.0086 95.1874 21.9607 95.2309C21.9127 95.2743 21.8564 95.3078 21.795 95.3293C21.7336 95.3507 21.6684 95.3597 21.6034 95.3557C19.3664 95.2122 17.2172 94.715 15.1557 93.8641C14.9387 93.7748 14.8507 93.615 14.8916 93.3847L15.2276 91.3487C15.2606 91.1492 15.2474 90.9525 15.1881 90.7587C14.8149 89.5393 14.0205 88.86 12.8049 88.7207C11.7566 88.5959 11.0887 89.2118 10.2766 89.799C10.1862 89.8642 10.0755 89.8946 9.96523 89.8847C9.85496 89.8747 9.75268 89.8251 9.67753 89.745C8.06737 88.081 6.89298 86.1516 6.15437 83.9568C6.12517 83.8677 6.12868 83.7712 6.16427 83.6844C6.19986 83.5977 6.2652 83.5264 6.34861 83.4832C9.66033 81.7967 9.57277 77.7839 5.58898 77.2401C5.42187 77.2169 5.26986 77.1312 5.16371 77.0003C5.05757 76.8694 5.00521 76.7032 5.01722 76.5352C5.18565 74.3452 5.70089 72.2352 6.56297 70.2053C6.6561 69.9839 6.8196 69.9039 7.05347 69.9653L8.74969 70.422C8.97942 70.484 9.20824 70.4849 9.43617 70.4246C10.9648 70.0087 11.6842 69.0236 11.5942 67.4692C11.5463 66.6586 11.0107 66.1066 10.5654 65.4393C10.5078 65.3506 10.4834 65.2448 10.4967 65.1414C10.51 65.038 10.5602 64.9439 10.638 64.8766C12.3566 63.3791 14.2658 62.1715 16.3656 61.2539C16.4256 61.228 16.4903 61.2148 16.5557 61.2151C16.621 61.2155 16.6856 61.2295 16.7453 61.2561C16.8049 61.2828 16.8584 61.3215 16.9022 61.3699C16.946 61.4183 16.9792 61.4753 16.9998 61.5372C17.8041 63.9122 19.4471 64.4911 21.9287 63.2741C23.1819 62.6637 22.8302 61.4051 23.3477 60.3874C23.391 60.3045 23.4588 60.2368 23.5419 60.1934C23.625 60.1501 23.7194 60.1332 23.8124 60.1451C26.0069 60.4261 28.1263 60.9913 30.1706 61.8406C30.3739 61.9236 30.4541 62.074 30.4113 62.2919L30.0503 64.0401C30.0106 64.2237 30.0157 64.4089 30.0655 64.5957C30.4798 66.1385 31.4885 66.8759 33.0916 66.8079C33.3437 66.7947 33.5732 66.7173 33.7802 66.5757L35.0919 65.6836C35.1835 65.6223 35.2941 65.596 35.4036 65.6096C35.513 65.6231 35.6138 65.6755 35.6876 65.7573C37.2153 67.4634 38.3755 69.3971 39.1683 71.5582C39.199 71.6423 39.1988 71.7347 39.1677 71.8194C39.1366 71.9041 39.0765 71.9758 38.9979 72.0218L37.6567 72.8042C37.4777 72.9077 37.3341 73.0481 37.2257 73.2253C36.1462 74.9419 36.398 76.461 37.9811 77.7825C38.1506 77.9214 38.3425 78.0125 38.5566 78.0557L39.9456 78.3312C40.1639 78.3739 40.2684 78.5037 40.2593 78.7207C40.1701 81.0127 39.6401 83.1925 38.6695 85.2602C38.6216 85.3613 38.5408 85.443 38.4408 85.4918C38.3408 85.5406 38.2275 85.5535 38.1198 85.5283C37.2458 85.3388 36.6008 84.943 35.7246 85.1533ZM32.6033 90.114C31.0685 85.8601 33.131 83.4835 37.4068 83.6529C37.62 83.6625 37.7511 83.5643 37.8 83.3581L38.5762 80.1324C38.6468 79.8468 38.5408 79.6665 38.2583 79.5914C34.381 78.4987 33.9377 73.5323 37.0122 71.2925C37.2373 71.1312 37.2768 70.9328 37.1306 70.6974L35.404 67.8867C35.346 67.7904 35.252 67.7208 35.1422 67.6927C35.0323 67.6645 34.9152 67.68 34.8156 67.7359C31.2801 69.7864 28.1403 66.6659 28.4662 63.0717C28.4855 62.8659 28.396 62.738 28.1978 62.688L25.011 61.9144C24.7688 61.8542 24.6086 61.9422 24.5305 62.1782C23.2872 66.046 18.5493 66.3849 16.0991 63.4949C15.9325 63.2921 15.7368 63.2587 15.512 63.3946L12.8161 65.0375C12.7727 65.0636 12.7392 65.1031 12.721 65.1496C12.7028 65.1961 12.7009 65.2469 12.7157 65.2938C13.8514 68.9749 12.1542 72.741 7.94402 71.8388C7.69424 71.7841 7.53979 71.8817 7.48069 72.1317L6.71398 75.3369C6.69265 75.4271 6.70384 75.5218 6.74552 75.6038C6.78721 75.6857 6.85664 75.7497 6.9413 75.784C10.652 77.365 11.6479 81.543 8.26945 84.2035C8.18103 84.2739 8.1204 84.3728 8.09865 84.4821C8.0769 84.5914 8.09548 84.7037 8.151 84.7986L9.77687 87.574C9.89731 87.7796 10.0669 87.836 10.2856 87.7434C14.0068 86.159 17.3886 88.3293 16.7485 92.4852C16.732 92.6007 16.759 92.7181 16.8243 92.8138C16.8896 92.9096 16.9884 92.9767 17.1008 93.0019L20.2748 93.7332C20.4765 93.7784 20.6087 93.701 20.6713 93.5013C21.7778 89.8192 27.1024 88.9149 29.1852 92.1846C29.2383 92.2674 29.3218 92.3261 29.4178 92.3481C29.5138 92.3701 29.6147 92.3538 29.6988 92.3025L32.4176 90.6434C32.6229 90.5189 32.6848 90.3425 32.6033 90.114Z" fill="#F5A020"/>
<path d="M14.4701 78.9943C14.1376 76.8244 14.6809 74.6112 15.9805 72.8418C17.2801 71.0724 19.2295 69.8915 21.3999 69.5591C23.5703 69.2267 25.7838 69.7699 27.5536 71.0693C29.3234 72.3686 30.5045 74.3176 30.837 76.4876C31.1694 78.6576 30.6261 80.8707 29.3265 82.6401C28.0269 84.4096 26.0775 85.5904 23.9071 85.9228C21.7367 86.2552 19.5232 85.712 17.7534 84.4127C15.9836 83.1133 14.8025 81.1643 14.4701 78.9943ZM16.136 78.7202C16.401 80.4493 17.3421 82.0023 18.7523 83.0377C20.1625 84.073 21.9263 84.5059 23.6558 84.241C25.3852 83.9761 26.9385 83.0352 27.9741 81.6253C29.0096 80.2153 29.4426 78.4518 29.1776 76.7228C28.9127 74.9937 27.9716 73.4406 26.5614 72.4053C25.1512 71.3699 23.3874 70.9371 21.6579 71.202C19.9285 71.4668 18.3752 72.4077 17.3396 73.8177C16.304 75.2276 15.8711 76.9911 16.136 78.7202Z" fill="#181619"/>
<ellipse cx="7.33272" cy="7.33134" rx="7.33272" ry="7.33134" transform="matrix(-0.988474 0.151394 -0.151452 -0.988464 31.4817 83.8062)" fill="#181619"/>
<rect width="35.1841" height="13.2441" transform="matrix(-0.964551 -0.263964 0.264051 -0.96449 93.3357 77.8779)" fill="#F5A020"/>
<rect width="35.2228" height="13.244" transform="matrix(-0.967488 -0.252985 0.25307 -0.96743 123.685 59.3457)" fill="#F5A020"/>
<rect width="38.812" height="15.2786" transform="matrix(0.266598 -0.963789 0.963851 0.26651 78.8872 73.8066)" fill="#F5A020"/>
<rect width="14.1901" height="39.7642" transform="matrix(0.251124 -0.967932 0.967999 0.251042 122.732 111.588)" fill="#F5A020"/>
<rect width="14.1919" height="83.1114" transform="matrix(0.968911 0.247498 -0.247579 0.968845 143.333 31.1021)" fill="#F5A020"/>
<path d="M142.997 33.2945L145.671 34.138L146.583 35.8916L146.352 38.4576L151.702 40.1445L152.553 37.4807L155.508 36.0667L158.183 36.9101L159.453 38.9234L164.693 35.8844L163.423 33.8711L163.703 31.6136L166.25 29.6313L168.518 29.9065L169.6 24.6768L166.779 22.9077L166.244 19.5137L168.646 16.6058L166.056 12.2707L162.956 12.7591L160.183 11.2986L159.6 7.59608L154.657 6.47747L152.615 9.6451L149.873 10.3932L146.548 7.43883L142.286 10.6398L142.985 13.0593L141.252 16.1781L137.793 16.4068L136.729 19.7365L136.711 21.6366L140.085 24.8995L139.805 27.157L137.616 29.399L140.255 34.0427L142.997 33.2945Z" fill="#F5A020"/>
<path d="M145.759 36.0233C145.253 33.9802 142.731 33.2337 141.225 34.7928C141.137 34.8835 141.032 34.9547 140.915 35.0018C140.798 35.0489 140.673 35.0707 140.547 35.066C140.421 35.0612 140.297 35.03 140.184 34.9742C140.071 34.9185 139.971 34.8395 139.891 34.7424C138.51 33.0956 137.432 31.2614 136.657 29.2396C136.626 29.1591 136.614 29.0729 136.62 28.9872C136.627 28.9014 136.652 28.8181 136.694 28.743C136.736 28.668 136.794 28.6031 136.863 28.5528C136.933 28.5025 137.013 28.4681 137.097 28.452C140.357 27.8368 139.816 22.5516 135.962 22.4596C135.898 22.4585 135.835 22.4443 135.776 22.4178C135.718 22.3913 135.665 22.353 135.621 22.3053C135.578 22.2575 135.544 22.2013 135.522 22.14C135.5 22.0787 135.491 22.0136 135.495 21.9485C135.629 19.7115 136.117 17.5606 136.959 15.4958C137.048 15.2785 137.207 15.1898 137.438 15.2298L139.475 15.557C139.675 15.5891 139.872 15.5751 140.065 15.5149C141.283 15.1366 141.959 14.3395 142.093 13.1235C142.214 12.075 141.595 11.4098 141.004 10.6004C140.939 10.5103 140.908 10.3997 140.917 10.2895C140.927 10.1792 140.976 10.0767 141.056 10.0012C142.713 8.38428 144.638 7.2019 146.83 6.45406C146.919 6.42449 147.015 6.42759 147.102 6.4628C147.189 6.49801 147.261 6.56303 147.304 6.64624C149.005 9.95007 153.018 9.84538 153.545 5.86009C153.568 5.69291 153.653 5.54057 153.783 5.43389C153.914 5.32721 154.08 5.27415 154.248 5.28544C156.439 5.44447 158.552 5.9506 160.586 6.80382C160.808 6.89599 160.888 7.05911 160.828 7.29319L160.378 8.99101C160.317 9.22096 160.317 9.44974 160.379 9.67737C160.801 11.2039 161.79 11.9189 163.344 11.8224C164.154 11.7709 164.704 11.2331 165.37 10.785C165.458 10.7271 165.564 10.7022 165.667 10.7151C165.771 10.728 165.865 10.7778 165.933 10.8552C167.438 12.5671 168.654 14.4708 169.581 16.5662C169.607 16.626 169.62 16.6907 169.62 16.7561C169.62 16.8214 169.606 16.886 169.58 16.9458C169.554 17.0055 169.515 17.0591 169.467 17.1031C169.419 17.1472 169.362 17.1806 169.3 17.2014C166.928 18.0158 166.356 19.6609 167.584 22.1367C168.2 23.3871 169.457 23.0301 170.477 23.5431C170.56 23.5861 170.628 23.6536 170.672 23.7365C170.716 23.8194 170.733 23.9137 170.722 24.0067C170.45 26.2019 169.894 28.3233 169.053 30.3709C168.971 30.5745 168.821 30.6553 168.602 30.6134L166.852 30.2599C166.669 30.2211 166.483 30.2269 166.297 30.2775C164.755 30.6983 164.022 31.7099 164.097 33.3124C164.111 33.5644 164.19 33.7936 164.332 33.9999L165.23 35.3075C165.292 35.3989 165.319 35.5094 165.306 35.6188C165.292 35.7283 165.24 35.8293 165.159 35.9034C163.459 37.4381 161.53 38.6063 159.372 39.4082C159.288 39.4393 159.195 39.4395 159.111 39.4087C159.026 39.3779 158.954 39.3182 158.907 39.2398L158.119 37.9022C158.015 37.7238 157.874 37.5807 157.696 37.4731C155.975 36.4012 154.456 36.6594 153.141 38.2479C153.003 38.4179 152.913 38.6101 152.87 38.8244L152.601 40.2142C152.559 40.4327 152.43 40.5378 152.213 40.5296C149.92 40.4502 147.737 39.9296 145.665 38.968C145.564 38.9205 145.482 38.8402 145.432 38.7404C145.383 38.6406 145.37 38.5273 145.395 38.4196C145.58 37.545 145.974 36.8984 145.759 36.0233ZM140.784 32.9238C145.033 31.3711 147.418 33.4231 147.267 37.6987C147.259 37.912 147.357 38.0426 147.564 38.0906L150.794 38.8529C151.079 38.9222 151.259 38.8155 151.333 38.5327C152.41 34.6515 157.375 34.1871 159.628 37.2514C159.791 37.4758 159.989 37.5144 160.224 37.3672L163.028 35.629C163.124 35.5705 163.193 35.4763 163.221 35.3664C163.249 35.2564 163.233 35.1394 163.176 35.04C161.11 31.514 164.218 28.3615 167.814 28.672C168.02 28.6904 168.148 28.6004 168.197 28.402L168.957 25.2126C169.016 24.9702 168.928 24.8105 168.691 24.7333C164.817 23.5068 164.458 18.7714 167.338 16.3093C167.54 16.1419 167.573 15.9461 167.436 15.7219L165.781 13.0336C165.755 12.9903 165.715 12.957 165.669 12.939C165.622 12.921 165.571 12.9193 165.524 12.9343C161.848 14.0855 158.073 12.4048 158.958 8.19157C159.011 7.9416 158.913 7.7876 158.663 7.72958L155.454 6.97673C155.363 6.95578 155.269 6.96738 155.187 7.0094C155.105 7.05143 155.042 7.12112 155.008 7.2059C153.442 10.9226 149.268 11.9362 146.592 8.56976C146.521 8.48166 146.422 8.42146 146.313 8.40018C146.203 8.3789 146.091 8.39796 145.996 8.45388L143.227 10.0913C143.022 10.2126 142.967 10.3823 143.06 10.6006C144.661 14.3143 142.504 17.7047 138.345 17.0825C138.229 17.0664 138.112 17.094 138.017 17.1596C137.921 17.2253 137.855 17.3243 137.83 17.4369L137.112 20.6133C137.068 20.8152 137.146 20.947 137.346 21.0087C141.033 22.0993 141.96 27.419 138.699 29.5153C138.616 29.5688 138.558 29.6525 138.536 29.7486C138.515 29.8446 138.532 29.9454 138.583 30.0293L140.254 32.7404C140.38 32.9452 140.556 33.0063 140.784 32.9238Z" fill="#F5A020"/>
<path d="M151.83 14.7475C153.999 14.4059 156.215 14.9396 157.991 16.2314C159.766 17.5232 160.955 19.4671 161.297 21.6356C161.639 23.8042 161.105 26.0196 159.813 27.7946C158.521 29.5695 156.576 30.7587 154.408 31.1004C152.239 31.442 150.023 30.9083 148.247 29.6165C146.472 28.3248 145.283 26.3808 144.941 24.2123C144.599 22.0437 145.133 19.8283 146.425 18.0533C147.717 16.2784 149.661 15.0892 151.83 14.7475ZM152.112 16.412C150.383 16.6843 148.834 17.6318 147.805 19.0462C146.775 20.4605 146.35 22.2258 146.622 23.9538C146.894 25.6817 147.842 27.2307 149.257 28.26C150.671 29.2893 152.437 29.7147 154.165 29.4424C155.893 29.1701 157.443 28.2226 158.472 26.8083C159.502 25.3939 159.927 23.6286 159.655 21.9006C159.383 20.1727 158.435 18.6237 157.02 17.5944C155.606 16.5651 153.84 16.1398 152.112 16.412Z" fill="#181619"/>
<ellipse cx="7.33134" cy="7.33272" rx="7.33134" ry="7.33272" transform="matrix(-0.155675 -0.987809 0.987818 -0.155615 147.091 31.7739)" fill="#181619"/>
<rect width="35.1793" height="13.2458" transform="matrix(0.259927 -0.965609 0.96567 0.259841 153.288 93.5928)" fill="#F5A020"/>
<rect width="35.2179" height="13.2459" transform="matrix(0.248934 -0.968502 0.96856 0.24885 171.953 123.859)" fill="#F5A020"/>
<rect width="38.8172" height="15.2765" transform="matrix(0.964981 0.26239 -0.262477 0.964919 157.298 79.1304)" fill="#F5A020"/>
</svg>
